<?xml version="1.0" standalone="no"?><!DOCTYPE svg PUBLIC "-//W3C//DTD SVG 1.1//EN" "http://www.w3.org/Graphics/SVG/1.1/DTD/svg11.dtd"><svg t="1591085653301" class="icon" viewBox="0 0 1024 1024" version="1.1" xmlns="http://www.w3.org/2000/svg" p-id="4535" xmlns:xlink="http://www.w3.org/1999/xlink" width="200" height="200"><defs><style type="text/css"></style></defs><path d="M1024 256V179.2a25.6 25.6 0 0 0-25.6-25.6H25.6a25.6 25.6 0 0 0-25.6 25.6v307.2a25.6 25.6 0 0 0 25.6 25.6H102.4v307.2h-25.6a25.6 25.6 0 0 0 0 51.2h204.8a25.6 25.6 0 0 0 0-51.2H256v-153.6h512v153.6h-25.6a25.6 25.6 0 0 0 0 51.2h204.8a25.6 25.6 0 0 0 0-51.2H921.6v-307.2h76.8a25.6 25.6 0 0 0 25.6-25.6V256z m-51.2-10.5984L757.4016 460.8h-183.6032l256-256H972.8v40.6016zM317.7984 460.8l256-256h183.6032l-256 256H317.7984z m-256 0l256-256h183.6032l-256 256H61.7984z m183.6032-256L51.2 399.0016V204.8h194.2016zM153.6 819.2v-307.2h51.2v307.2H153.6z m102.4-204.8v-102.4h512v102.4H256z m614.4 204.8h-51.2v-307.2h51.2v307.2z m-40.6016-358.4L972.8 317.7984V460.8h-143.0016z" fill="" p-id="4536"></path></svg>