<?xml version="1.0" standalone="no"?><!DOCTYPE svg PUBLIC "-//W3C//DTD SVG 1.1//EN" "http://www.w3.org/Graphics/SVG/1.1/DTD/svg11.dtd"><svg t="1591087454062" class="icon" viewBox="0 0 1025 1024" version="1.1" xmlns="http://www.w3.org/2000/svg" p-id="6335" xmlns:xlink="http://www.w3.org/1999/xlink" width="200.1953125" height="200"><defs><style type="text/css"></style></defs><path d="M661.840006 119.424c-15.136-15.104-35.2-23.424-56.576-23.424s-41.44 8.32-56.64 23.456l-45.12 45.184c-15.136 15.104-23.488 35.2-23.488 56.608 0 15.072 4.128 29.504 11.872 42.016l-434.464 174.048c-29.056 12.768-49.888 38.976-55.744 70.048-5.92 31.264 4 63.328 26.688 85.984l407.04 402.56c17.536 17.536 40.832 27.488 65.44 28.064 0.576 0.032 1.92 0.032 2.496 0.032 6.464 0 13.024-0.672 19.52-1.984 31.808-6.592 57.856-28.576 69.664-58.496l170.944-428.032c12.864 8.48 28 13.024 43.744 13.024 21.44 0 41.504-8.352 56.576-23.456l45.024-45.056c15.264-15.168 23.616-35.296 23.616-56.736s-8.384-41.6-23.424-56.576l-247.168-247.264zM533.104006 939.744c-3.968 10.016-12.704 17.408-23.264 19.584-2.432 0.512-4.896 0.704-7.328 0.672-8.128-0.192-15.968-3.456-21.824-9.344l-407.296-402.816c-7.488-7.456-10.784-18.144-8.8-28.576 1.952-10.368 8.928-19.136 18.624-23.36l198.944-79.68c134.048 44.576 268.128 1.632 402.24 144.704l-151.296 378.816zM863.760006 434.56l-45.248 45.216c-6.24 6.272-16.384 6.272-22.624 0l-56.576-56.544-45.824 114.848 3.808-9.696c-96.32-96.16-194.208-108.288-282.528-119.136-28.384-3.488-55.904-7.136-82.944-12.96l271.712-108.832-54.88-54.88c-6.24-6.24-6.24-16.384 0-22.624l45.248-45.28c6.24-6.24 16.384-6.24 22.624 0l247.2 247.264c6.336 6.24 6.336 16.384 0.032 22.624zM528.016006 672c44.096 0 80-35.872 80-80s-35.872-80-80-80c-44.128 0-80 35.872-80 80s35.904 80 80 80zM528.016006 544c26.496 0 48 21.504 48 48s-21.504 48-48 48c-26.528 0-48-21.504-48-48s21.472-48 48-48zM944.016006 0c-44.128 0-80 35.872-80 80s35.872 80 80 80 80-35.872 80-80-35.872-80-80-80zM944.016006 128c-26.496 0-48-21.504-48-48s21.504-48 48-48 48 21.504 48 48-21.504 48-48 48zM256.016006 544c0 35.296 28.704 64 64 64s64-28.704 64-64-28.704-64-64-64-64 28.704-64 64zM320.016006 512c17.664 0 32 14.304 32 32s-14.336 32-32 32-32-14.304-32-32 14.336-32 32-32zM384.016006 736c0-17.664 14.336-32 32-32s32 14.336 32 32c0 17.664-14.336 32-32 32s-32-14.336-32-32zM896.016006 256c0-17.664 14.336-32 32-32s32 14.336 32 32c0 17.664-14.336 32-32 32s-32-14.336-32-32z" p-id="6336"></path></svg>